<svg width="46" height="37" viewBox="0 0 46 37" fill="none" xmlns="http://www.w3.org/2000/svg">
<path d="M35.65 16.1C29.9287 16.1 25.3 20.7287 25.3 26.45C25.3 32.1712 29.9287 36.8 35.65 36.8C41.3712 36.8 46 32.1712 46 26.45C46 20.7287 41.3712 16.1 35.65 16.1ZM40.25 26.9028C40.25 27.2837 39.9337 27.6 39.5528 27.6H35.1972C34.8163 27.6 34.5 27.2837 34.5 26.9028V21.3972C34.5 21.0163 34.8163 20.7 35.1972 20.7H36.1028C36.4837 20.7 36.8 21.0163 36.8 21.3972V25.3H39.5528C39.9337 25.3 40.25 25.6163 40.25 25.9972V26.9028ZM23 26.45C23 24.4519 23.4816 22.5616 24.3081 20.8797C23.7331 20.7719 23.1438 20.7 22.54 20.7H21.3397C19.7441 21.4331 17.9688 21.85 16.1 21.85C14.2313 21.85 12.4631 21.4331 10.8603 20.7H9.66C4.32687 20.7 0 25.0269 0 30.36V33.35C0 35.2547 1.54531 36.8 3.45 36.8H28.3978C25.1419 34.5072 23 30.7266 23 26.45ZM16.1 18.4C21.1816 18.4 25.3 14.2816 25.3 9.2C25.3 4.11844 21.1816 0 16.1 0C11.0184 0 6.9 4.11844 6.9 9.2C6.9 14.2816 11.0184 18.4 16.1 18.4Z" fill="#00D5C9"/>
</svg>
