<svg width="47" height="41" viewBox="0 0 47 41" fill="none" xmlns="http://www.w3.org/2000/svg">
<path d="M36.9537 8.73795L31.3885 4.00446L38.9251 0L46.9648 4.53839L36.9537 8.73795ZM20.6791 5.08259L25.3715 2.18705L28.9345 5.73973L23.2461 8.71741L20.6791 5.08259ZM13.9948 5.76027L17.2702 3.49107L19.0363 6.40714L15.268 8.71741L13.9948 5.76027ZM11.6023 14.8165L10.6988 11.2433L13.7381 9.36429L15.0831 12.9888L11.6023 14.8165ZM9.42556 6.22232L11.8796 4.36384L12.7934 6.82813L10.0519 8.70714L9.42556 6.22232ZM7.02288 13.7487L6.65324 10.8326L8.94297 9.24107L9.56931 12.1879L7.02288 13.7487ZM3.88092 15.4531L6.01663 14.1388L6.35547 17.5683L4.00413 18.8004L3.88092 15.4531ZM1.10859 20.0634L3.08002 19.0161L3.12109 22.9384L0.964844 23.842L1.10859 20.0634ZM7.1769 26.1522L4.27109 27.0045L4.10681 22.1991L6.68404 21.1004L7.1769 26.1522ZM11.13 19.5705L7.93672 20.9054L7.40279 16.7161L10.2162 15.2375L11.13 19.5705ZM13.6148 31.2554L9.34342 31.8612L8.51172 25.3411L12.126 24.2321L13.6148 31.2554ZM16.5412 16.8906L18.718 22.7536L13.9742 24.15L12.5675 18.5951L16.5412 16.8906ZM25.3407 40.558L18.0608 40.2192L15.5657 30.3826L21.2336 29.4996L25.3407 40.558ZM16.6233 11.8388L20.9564 9.53884L23.8314 14.2518L18.6153 16.4388L16.6233 11.8388ZM20.8331 21.583L27.1273 19.6629L32.5488 28.5549L24.355 29.7152L20.8331 21.583ZM26.1108 12.7937L33.0211 9.83661L39.7465 16.5518L30.6492 19.242L26.1108 12.7937Z" fill="#00D5C9"/>
</svg>
