<svg width="40" height="54" viewBox="0 0 40 54" fill="none" xmlns="http://www.w3.org/2000/svg">
<path d="M23.3333 14.1667V0H2.5C1.11458 0 0 1.11458 0 2.5V50.8333C0 52.2188 1.11458 53.3333 2.5 53.3333H37.5C38.8854 53.3333 40 52.2188 40 50.8333V16.6667H25.8333C24.4583 16.6667 23.3333 15.5417 23.3333 14.1667ZM29.2812 26.6667H31.7708C32.5729 26.6667 33.1667 27.4062 32.9896 28.1979L29.0312 45.6979C28.9062 46.2708 28.3958 46.6667 27.8125 46.6667H23.8542C23.2812 46.6667 22.7812 46.2708 22.6458 45.7188C19.9583 34.9375 20.4792 37.2604 19.9792 34.2083H19.9271C19.8125 35.6979 19.6771 36.0208 17.2604 45.7188C17.125 46.2708 16.625 46.6667 16.0521 46.6667H12.1875C11.6042 46.6667 11.0938 46.2604 10.9688 45.6875L7.03125 28.1875C6.85417 27.4062 7.44792 26.6667 8.25 26.6667H10.8021C11.3958 26.6667 11.9167 27.0833 12.0312 27.6771C13.6562 35.8021 14.125 39.0833 14.2188 40.4062C14.3854 39.3438 14.9792 37 17.2812 27.625C17.4167 27.0625 17.9167 26.6771 18.5 26.6771H21.5312C22.1146 26.6771 22.6146 27.0729 22.75 27.6354C25.25 38.0937 25.75 40.5521 25.8333 41.1146C25.8125 39.9479 25.5625 39.2604 28.0833 27.6562C28.1875 27.0729 28.6979 26.6667 29.2812 26.6667ZM40 12.6979V13.3333H26.6667V0H27.3021C27.9688 0 28.6042 0.260417 29.0729 0.729167L39.2708 10.9375C39.7396 11.4062 40 12.0417 40 12.6979Z" fill="#00D5C9"/>
</svg>
