<svg width="47" height="37" viewBox="0 0 47 37" fill="none" xmlns="http://www.w3.org/2000/svg">
<path d="M36.0063 13.7984H25.0813V17.8234C25.0813 20.6768 22.7597 22.9984 19.9063 22.9984C17.0529 22.9984 14.7313 20.6768 14.7313 17.8234V9.08343L10.0666 11.8865C8.67944 12.7131 7.83131 14.2153 7.83131 15.8253V19.225L2.08132 22.5456C0.981639 23.1781 0.600702 24.5868 1.24039 25.6865L6.99038 35.6484C7.62288 36.7481 9.03162 37.1218 10.1313 36.4893L17.5632 32.1984H27.3813C29.9185 32.1984 31.9813 30.1356 31.9813 27.5984H33.1313C34.4035 27.5984 35.4313 26.5706 35.4313 25.2984V20.6984H36.0063C36.9622 20.6984 37.7313 19.9293 37.7313 18.9734V15.5234C37.7313 14.5675 36.9622 13.7984 36.0063 13.7984ZM46.6222 11.1103L40.8722 1.14844C40.2397 0.0487576 38.8309 -0.324992 37.7313 0.307507L30.2994 4.59844H22.9538C22.0913 4.59844 21.2504 4.84281 20.5172 5.29562L18.1094 6.79781C17.4338 7.21468 17.0313 7.95499 17.0313 8.74562V17.8234C17.0313 19.4118 18.3179 20.6984 19.9063 20.6984C21.4947 20.6984 22.7813 19.4118 22.7813 17.8234V11.4984H36.0063C38.2272 11.4984 40.0313 13.3025 40.0313 15.5234V17.5719L45.7812 14.2512C46.8809 13.6115 47.2547 12.21 46.6222 11.1103Z" fill="#00D5C9"/>
</svg>
