<!DOCTYPE svg PUBLIC "-//W3C//DTD SVG 1.1//EN" "http://www.w3.org/Graphics/SVG/1.1/DTD/svg11.dtd">
<!-- Uploaded to: SVG Repo, www.svgrepo.com, Transformed by: SVG Repo Mixer Tools -->
<svg fill="#00d5c9" width="800px" height="800px" viewBox="-3.5 0 19 19" xmlns="http://www.w3.org/2000/svg" class="cf-icon-svg">
<g id="SVGRepo_bgCarrier" stroke-width="0"/>
<g id="SVGRepo_tracerCarrier" stroke-linecap="round" stroke-linejoin="round"/>
<g id="SVGRepo_iconCarrier">
<path d="M11.16 16.131a.476.476 0 0 1-.476.475H1.316a.476.476 0 0 1-.475-.475V3.024a.476.476 0 0 1 .475-.475h6.95l2.893 2.893zm-1.11-9.924H8.059a.575.575 0 0 1-.574-.574V3.657H1.95v11.841h8.102zm-4.689 8.161a.55.55 0 0 0 .048-.002.554.554 0 0 0 .432-.275l3.241-5.613a.554.554 0 1 0-.96-.555L5.28 12.85l-1.305-1.566a.554.554 0 1 0-.851.71l1.813 2.176a.554.554 0 0 0 .426.2z"/>
</g>
</svg>