<svg width="41" height="27" viewBox="0 0 41 27" fill="none" xmlns="http://www.w3.org/2000/svg">
<path d="M39.2982 0H7.07596C6.15547 0 5.40929 0.74618 5.40929 1.66667V2.22222H2.63151C1.71102 2.22222 0.964844 2.9684 0.964844 3.88889V22.7778C0.964844 24.9256 2.70596 26.6667 4.85373 26.6667H37.6315C39.4725 26.6667 40.9648 25.1743 40.9648 23.3333V1.66667C40.9648 0.74618 40.2187 0 39.2982 0ZM4.85373 23.3333C4.70639 23.3333 4.56508 23.2748 4.4609 23.1706C4.35671 23.0664 4.29818 22.9251 4.29818 22.7778V5.55556H5.40929V22.7778C5.40929 22.9251 5.35076 23.0664 5.24657 23.1706C5.14238 23.2748 5.00108 23.3333 4.85373 23.3333ZM21.2426 22.2222H10.6871C10.2269 22.2222 9.85373 21.8491 9.85373 21.3889V20.8333C9.85373 20.3731 10.2269 20 10.6871 20H21.2426C21.7028 20 22.076 20.3731 22.076 20.8333V21.3889C22.076 21.8491 21.7028 22.2222 21.2426 22.2222ZM35.6871 22.2222H25.1315C24.6713 22.2222 24.2982 21.8491 24.2982 21.3889V20.8333C24.2982 20.3731 24.6713 20 25.1315 20H35.6871C36.1473 20 36.5204 20.3731 36.5204 20.8333V21.3889C36.5204 21.8491 36.1473 22.2222 35.6871 22.2222ZM21.2426 15.5556H10.6871C10.2269 15.5556 9.85373 15.1824 9.85373 14.7222V14.1667C9.85373 13.7065 10.2269 13.3333 10.6871 13.3333H21.2426C21.7028 13.3333 22.076 13.7065 22.076 14.1667V14.7222C22.076 15.1824 21.7028 15.5556 21.2426 15.5556ZM35.6871 15.5556H25.1315C24.6713 15.5556 24.2982 15.1824 24.2982 14.7222V14.1667C24.2982 13.7065 24.6713 13.3333 25.1315 13.3333H35.6871C36.1473 13.3333 36.5204 13.7065 36.5204 14.1667V14.7222C36.5204 15.1824 36.1473 15.5556 35.6871 15.5556ZM35.6871 8.88889H10.6871C10.2269 8.88889 9.85373 8.51576 9.85373 8.05556V5.27778C9.85373 4.81757 10.2269 4.44444 10.6871 4.44444H35.6871C36.1473 4.44444 36.5204 4.81757 36.5204 5.27778V8.05556C36.5204 8.51576 36.1473 8.88889 35.6871 8.88889Z" fill="#00D5C9"/>
</svg>
