<svg id="Layer_1" viewBox="0 0 24 24" xmlns="http://www.w3.org/2000/svg" fill="#9333ea" data-name="Layer 1"><path d="m7.281 9.838 1.416-.806c.606.66 1.4 1.141 2.303 1.347v1.621h2v-1.621c.903-.206 1.697-.687 2.303-1.347l1.416.806.99-1.738-1.42-.809c.124-.412.211-.839.211-1.291s-.087-.88-.211-1.291l1.42-.809-.99-1.738-1.416.806c-.606-.66-1.4-1.14-2.303-1.347v-1.621h-2v1.621c-.903.206-1.697.687-2.303 1.347l-1.416-.806-.989 1.738 1.42.809c-.125.412-.212.84-.212 1.292s.087.88.212 1.292l-1.42.809.989 1.738zm4.719-6.338c1.379 0 2.5 1.122 2.5 2.5s-1.121 2.5-2.5 2.5-2.5-1.122-2.5-2.5 1.122-2.5 2.5-2.5zm5 11c0-1.381 1.119-2.5 2.5-2.5s2.5 1.119 2.5 2.5-1.119 2.5-2.5 2.5-2.5-1.119-2.5-2.5zm7 6v3.5h-2v-3.5c0-.275-.225-.5-.5-.5h-4c-.275 0-.5.225-.5.5v3.5h-2v-1c0-.552-.448-1-1-1h-4c-.551 0-1 .448-1 1v1h-2v-3.5c0-.275-.224-.5-.5-.5h-4c-.276 0-.5.225-.5.5v3.5h-2v-3.5c0-1.379 1.122-2.5 2.5-2.5h4c1.274 0 2.316.961 2.469 2.194.323-.119.667-.194 1.031-.194h4c.364 0 .708.075 1.031.194.153-1.233 1.195-2.194 2.469-2.194h4c1.379 0 2.5 1.121 2.5 2.5zm-22-6c0-1.381 1.119-2.5 2.5-2.5s2.5 1.119 2.5 2.5-1.119 2.5-2.5 2.5-2.5-1.119-2.5-2.5zm10-.5c1.381 0 2.5 1.119 2.5 2.5s-1.119 2.5-2.5 2.5-2.5-1.119-2.5-2.5 1.119-2.5 2.5-2.5z"/></svg>