<?xml version="1.0" encoding="UTF-8"?>
<svg xmlns="http://www.w3.org/2000/svg" id="Layer_1" data-name="Layer 1" fill="#16a34a" viewBox="0 0 24 24">
  <path d="M14.647,5.978c.31,.081,.597,.121,.863,.121,.403,0,.76-.093,1.078-.279,.53-.312,.901-.863,1.103-1.643h0c.235-.907,.315-2.51-1.784-3.056-.72-.187-1.314-.157-1.818,.093-.596,.295-1.008,.87-1.225,1.709-.235,.906-.316,2.509,1.782,3.055Z"/>
  <path d="M18.881,12.124c-1.086-.681-1.817-1.8-2.005-3.071l-.151-1.024c-.051-.342-.275-.634-.593-.771-1.139-.492-2.342-.812-3.653-.877-.002,0-1.073-.013-1.073-.013-1.868-.015-3.646,.767-4.877,2.175-.363,.416-.321,1.047,.095,1.411,.189,.166,.424,.247,.658,.247,.278,0,.556-.115,.753-.342,.676-.774,1.587-1.266,2.587-1.43-.772,1.513-1.274,3.161-1.473,4.851,0,.005-.001,.01-.002,.015-.043,.348,.101,.695,.369,.912l.735,.593c1.96,1.58,2.846,4.193,2.257,6.658l-.074,.311c-.128,.537,.203,1.076,.74,1.205,.078,.019,.156,.027,.233,.027,.452,0,.862-.309,.972-.768l.074-.311c.767-3.211-.39-6.618-2.946-8.68l-.3-.242c.26-1.618,.844-3.18,1.709-4.57,.523,.066,1.038,.179,1.54,.336l-1.427,3.918c-.052,.144-.113,.283-.18,.418,.509,.504,.955,1.06,1.333,1.656,.298-.424,.544-.89,.726-1.39l.695-1.907c.517,.953,1.276,1.769,2.217,2.358,.468,.295,1.085,.151,1.378-.316,.293-.469,.151-1.086-.317-1.379Z"/>
  <path d="M9.624,15.577l-.301-.243-3.772,.377c-.55,.055-.951,.545-.896,1.095,.052,.516,.486,.9,.994,.9,.033,0,.066-.002,.1-.005l4.025-.402c.392-.033,.774-.106,1.144-.212-.333-.57-.768-1.084-1.295-1.509Z"/>
</svg>
