<?xml version="1.0" ?><!-- Uploaded to: SVG Repo, www.svgrepo.com, Generator: SVG Repo Mixer Tools -->
<svg width="800px" height="800px" viewBox="0 0 64 64" data-name="Layer 1" id="Layer_1" xmlns="http://www.w3.org/2000/svg"><defs><style>.cls-1{fill:#0074ff;}.cls-2{fill:#ffb300;}</style></defs><title/><path class="cls-1" d="M56.1,53.44H52.66a2,2,0,0,1,0-4H54.1V19H49.86v4.47a2,2,0,0,1-2,2h-7a2,2,0,0,1-2-2V19H25.11v4.47a2,2,0,0,1-2,2h-7a2,2,0,0,1-2-2V19H9.9V49.44H41.12a2,2,0,1,1,0,4H7.9a2,2,0,0,1-2-2V17a2,2,0,0,1,2-2h8.24a2,2,0,0,1,2,2v4.47h3V17a2,2,0,0,1,2-2H40.89a2,2,0,0,1,2,2v4.47h3V17a2,2,0,0,1,2-2H56.1a2,2,0,0,1,2,2V51.44A2,2,0,0,1,56.1,53.44Z"/><path class="cls-1" d="M23.11,25.44h-7a2,2,0,0,1-2-2V12.56a2,2,0,0,1,2-2h7a2,2,0,0,1,2,2V23.44A2,2,0,0,1,23.11,25.44Zm-5-4h3V14.56h-3Z"/><path class="cls-1" d="M47.86,25.44h-7a2,2,0,0,1-2-2V12.56a2,2,0,0,1,2-2h7a2,2,0,0,1,2,2V23.44A2,2,0,0,1,47.86,25.44Zm-5-4h3V14.56h-3Z"/><path class="cls-2" d="M47.86,32.46H16.14a2,2,0,0,1,0-4H47.86a2,2,0,0,1,0,4Z"/></svg>