<?xml version="1.0" encoding="UTF-8"?>
<svg xmlns="http://www.w3.org/2000/svg" id="Layer_1" data-name="Layer 1" fill="#5d9cef" viewBox="0 0 24 24">
  <path d="m23.265,19.379l-.983-.566c.129-.418.218-.853.218-1.313s-.09-.895-.218-1.313l.983-.566c.479-.275.644-.887.367-1.366-.274-.477-.887-.644-1.365-.367l-.977.563c-.605-.652-1.393-1.126-2.289-1.33v-1.121c0-.552-.447-1-1-1s-1,.448-1,1v1.121c-.896.205-1.685.678-2.289,1.33l-.977-.563c-.479-.277-1.089-.11-1.365.367-.276.479-.112,1.09.367,1.366l.983.566c-.129.418-.218.853-.218,1.313s.09.895.218,1.313l-.983.566c-.479.275-.643.887-.367,1.366.185.321.521.5.867.5.169,0,.341-.043.498-.134l.977-.563c.605.652,1.393,1.126,2.289,1.33v1.121c0,.552.447,1,1,1s1-.448,1-1v-1.121c.896-.205,1.685-.678,2.289-1.33l.977.563c.157.091.329.134.498.134.346,0,.683-.18.867-.5.276-.479.111-1.09-.367-1.366Zm-5.265-.379c-.827,0-1.5-.673-1.5-1.5s.673-1.5,1.5-1.5,1.5.673,1.5,1.5-.673,1.5-1.5,1.5Zm-2.413-14.371l-7.616,4.374s-.008-.002-.012-.002c-.016,0-.029.008-.044.009L.369,4.716c.376-.869,1.023-1.613,1.87-2.097L5.795.587c1.36-.778,3.05-.778,4.411,0l3.555,2.032c.818.468,1.445,1.18,1.827,2.01ZM0,6.807l6.96,3.96v7.77c-.429-.103-.843-.263-1.225-.49l-3.556-2.106c-1.344-.796-2.179-2.261-2.179-3.824v-5.31Zm10,10.693c0,.222.016.441.033.658-.342.174-.7.312-1.073.394v-7.811l7.04-4.043v3.064c-3.449.889-6,4.011-6,7.738Z"/>
</svg>
