<svg width="900" height="219" viewBox="0 0 900 219" fill="none" xmlns="http://www.w3.org/2000/svg">
<path d="M518.361 116.399C516.67 119.488 514.138 122.034 511.058 123.741C507.978 125.447 504.476 126.244 500.961 126.039C498.289 126.168 495.62 125.741 493.122 124.785C490.623 123.829 488.351 122.364 486.448 120.484C484.546 118.604 483.054 116.35 482.068 113.863C481.082 111.377 480.624 108.712 480.721 106.039C480.624 103.366 481.082 100.702 482.068 98.2155C483.054 95.729 484.546 93.4743 486.448 91.5942C488.351 89.7141 490.623 88.2496 493.122 87.2934C495.62 86.3372 498.289 85.9101 500.961 86.0393C504.475 85.8439 507.972 86.6451 511.051 88.3506C514.129 90.0561 516.663 92.5965 518.361 95.6793L541.841 82.5993C537.577 75.728 531.6 70.0834 524.496 66.2195C517.392 62.3555 509.406 60.405 501.321 60.5593C474.081 60.5593 453.801 80.3593 453.801 105.999C453.801 131.639 474.081 151.399 501.321 151.399C509.431 151.589 517.447 149.637 524.561 145.739C531.675 141.841 537.636 136.136 541.841 129.199L518.361 116.399Z" fill="#1300A6"/>
<path d="M632.761 82.0794C637.128 81.8284 641.444 83.1213 644.954 85.732C648.464 88.3426 650.945 92.1046 651.961 96.3594H613.04C614.077 92.0146 616.637 88.1851 620.254 85.5653C623.872 82.9455 628.309 81.7088 632.761 82.0794ZM634.961 153.599C652.161 153.599 665.561 147.239 674.401 134.959L652.681 122.439C650.41 124.711 647.698 126.493 644.713 127.676C641.727 128.859 638.531 129.419 635.321 129.319C625.361 129.319 617.041 126.079 613.561 116.639H677.881C678.614 113.073 678.976 109.44 678.961 105.799C678.961 78.4394 659.401 57.9994 632.961 57.9994C626.68 57.7707 620.419 58.8225 614.558 61.0906C608.697 63.3587 603.359 66.7958 598.868 71.1926C594.378 75.5894 590.829 80.854 588.438 86.666C586.047 92.4779 584.864 98.7156 584.961 104.999V106.599C585.321 133.199 604.441 153.599 635.081 153.599" fill="#1300A6"/>
<path d="M819.48 101.562C819.48 88.6819 826.36 82.8819 836.32 82.8819C845 82.8819 852.04 88.1619 852.04 99.3619V151.002H879.2V95.4019C879.2 70.9619 863.64 57.9219 845.36 57.9219C833.36 57.9219 824.36 62.2419 819.48 68.9619V60.4419H792.32V151.002H819.48V101.562Z" fill="#1300A6"/>
<path d="M549.641 18.8789V46.9989V63.3589V64.9589V73.7989V80.1589V83.3989V127.999V131.239V136.879V151.079H576.801V122.919V106.599V104.999V96.1189V89.7589V86.5589V41.9189V38.7189V33.0789V18.8789H549.641Z" fill="#1300A6"/>
<path d="M87.0794 126.039C80.864 126.046 74.7502 124.462 69.3194 121.439C63.2249 118.289 58.1485 113.475 54.6793 107.556C51.2102 101.637 49.4903 94.8563 49.7194 87.9995C49.4979 83.0606 50.2961 78.1289 52.0642 73.512C53.8323 68.8951 56.5324 64.6919 59.9962 61.1643C63.46 57.6367 67.6133 54.8603 72.1971 53.0083C76.781 51.1562 81.6972 50.2682 86.6394 50.3995C96.0403 50.1913 105.15 53.6697 112.019 60.0908C118.889 66.5118 122.973 75.3659 123.399 84.7595C123.622 86.3636 123.742 87.9801 123.759 89.5995C123.749 99.3207 119.88 108.64 113.002 115.51C106.124 122.38 96.8006 126.239 87.0794 126.239M152.479 87.9995C152.581 79.3157 150.949 70.699 147.678 62.6539C144.408 54.6089 139.565 47.2972 133.434 41.1472C127.302 34.9971 120.005 30.1322 111.97 26.8375C103.935 23.5428 95.3234 21.8844 86.6394 21.9595C77.9553 21.8844 69.3436 23.5428 61.3085 26.8375C53.2734 30.1322 45.9765 34.9971 39.845 41.1472C33.7136 47.2972 28.8709 54.6089 25.6005 62.6539C22.3302 70.699 20.6979 79.3157 20.7994 87.9995C20.746 96.6531 22.4138 105.231 25.7057 113.234C28.9975 121.237 33.8478 128.506 39.9744 134.618C46.101 140.73 53.3816 145.562 61.3928 148.835C69.404 152.107 77.9859 153.754 86.6394 153.679C96.9138 153.668 107.051 151.315 116.279 146.799L129.879 161.079L150.679 142.639L137.999 129.239C147.404 117.555 152.515 102.998 152.479 87.9995Z" fill="#1300A6"/>
<path d="M420.44 60.4805V110.8C420.44 119.32 417.32 129.48 402.64 129.48C395 129.48 385.92 126.56 385.92 112.56V60.5605H360.68V112C360.68 136.6 376.36 153.8 398.76 153.8C406.899 154.276 414.925 151.71 421.28 146.6C421.28 161.96 411.72 169.16 402.12 169.16C398.845 169.112 395.618 168.375 392.648 166.996C389.677 165.618 387.031 163.63 384.88 161.16L382.96 159.32L361.72 172L364.36 175.04C368.869 180.975 374.763 185.714 381.527 188.845C388.29 191.976 395.718 193.402 403.16 193C422.96 193 445.64 178.76 445.64 146.76V60.4805H420.44Z" fill="#1300A6"/>
<path d="M247.24 60.5586V151.039H220V142.519C215.12 149.199 206.08 153.559 194.16 153.559C176 153.559 160.4 140.519 160.4 115.999V60.5586H187.52V111.999C187.296 114.156 187.544 116.337 188.246 118.389C188.949 120.441 190.089 122.316 191.588 123.884C193.088 125.452 194.91 126.675 196.929 127.468C198.948 128.261 201.115 128.606 203.28 128.479C213.2 128.479 220.08 122.679 220.08 109.839V60.5586H247.24Z" fill="#1300A6"/>
<path d="M352.52 60.439H325.44V68.959C322.041 65.2308 317.854 62.3059 313.184 60.3964C308.514 58.4869 303.478 57.6406 298.44 57.919C290.775 58.0512 283.288 60.2553 276.774 64.2975C270.26 68.3398 264.962 74.0694 261.44 80.879C260.76 82.159 260.08 83.439 259.52 84.879C258.78 86.56 258.139 88.2829 257.6 90.039C254.339 100.293 254.339 111.305 257.6 121.559C258.125 123.32 258.767 125.043 259.52 126.719C260.085 128.087 260.726 129.423 261.44 130.719C264.962 137.529 270.26 143.258 276.774 147.3C283.288 151.343 290.775 153.547 298.44 153.679C302.011 153.702 305.571 153.285 309.04 152.439C311.049 151.801 312.991 150.971 314.84 149.959L315.32 149.679C319.501 147.331 323.293 144.349 326.56 140.839C329.534 137.392 332.21 133.699 334.56 129.799C333.407 132.733 332.071 135.592 330.56 138.359C329.18 140.754 327.53 142.982 325.64 144.999V151.159H352.8V60.439H352.52ZM304 127.999C301.089 128.13 298.184 127.644 295.474 126.574C292.764 125.503 290.311 123.872 288.275 121.788C286.239 119.703 284.667 117.212 283.662 114.477C282.656 111.742 282.24 108.826 282.44 105.919C282.44 100.201 284.712 94.717 288.755 90.6738C292.798 86.6305 298.282 84.359 304 84.359C309.718 84.359 315.202 86.6305 319.245 90.6738C323.289 94.717 325.56 100.201 325.56 105.919C325.76 108.826 325.344 111.742 324.338 114.477C323.333 117.212 321.761 119.703 319.725 121.788C317.689 123.872 315.236 125.503 312.526 126.574C309.816 127.644 306.911 128.13 304 127.999Z" fill="#1300A6"/>
<path d="M784.32 60.44H757.24V68.96C753.836 65.2385 749.648 62.3182 744.98 60.4092C740.311 58.5002 735.277 57.6501 730.24 57.92C722.575 58.0522 715.089 60.2563 708.575 64.2985C702.061 68.3407 696.762 74.0704 693.24 80.88C692.518 82.172 691.876 83.5079 691.32 84.88C690.567 86.5603 689.912 88.2832 689.36 90.04C686.161 100.303 686.161 111.297 689.36 121.56C689.899 123.321 690.554 125.045 691.32 126.72C691.868 128.096 692.509 129.432 693.24 130.72C696.762 137.53 702.061 143.259 708.575 147.301C715.089 151.344 722.575 153.548 730.24 153.68C733.811 153.703 737.371 153.286 740.84 152.44C742.839 151.809 744.768 150.978 746.6 149.96L747.12 149.68C751.289 147.332 755.068 144.349 758.32 140.84C761.308 137.404 763.985 133.709 766.32 129.8C765.167 132.734 763.831 135.593 762.32 138.36C760.941 140.755 759.29 142.983 757.4 145V151.16H784.56V60.44H784.32ZM735.68 128C732.769 128.131 729.864 127.645 727.154 126.575C724.444 125.504 721.991 123.873 719.955 121.789C717.92 119.704 716.347 117.213 715.342 114.478C714.336 111.743 713.92 108.827 714.12 105.92C714.12 100.202 716.392 94.718 720.435 90.6748C724.478 86.6315 729.962 84.36 735.68 84.36C741.398 84.36 746.882 86.6315 750.925 90.6748C754.969 94.718 757.24 100.202 757.24 105.92C757.44 108.827 757.024 111.743 756.019 114.478C755.013 117.213 753.441 119.704 751.405 121.789C749.37 123.873 746.917 125.504 744.207 126.575C741.497 127.645 738.591 128.131 735.68 128Z" fill="#1300A6"/>
<path d="M465.66 196.838H480.5V205H457.18V167.9H480.235V176.062H465.66V182.21H478.91V190.266H465.66V196.838ZM510.194 205H501.078L496.149 198.004L491.22 205H482.104L491.591 191.538L482.422 178.5H491.538L496.149 185.072L500.76 178.5H509.876L500.707 191.538L510.194 205ZM528.971 177.758C535.914 177.758 541.638 183.853 541.638 191.75C541.638 199.647 535.914 205.742 528.971 205.742C525.42 205.742 522.823 204.523 521.074 202.509V215.6H513.124V178.5H521.074V180.991C522.823 178.977 525.42 177.758 528.971 177.758ZM527.381 198.216C531.038 198.216 533.688 195.725 533.688 191.75C533.688 187.775 531.038 185.284 527.381 185.284C523.724 185.284 521.074 187.775 521.074 191.75C521.074 195.725 523.724 198.216 527.381 198.216ZM553.247 194.93C554.254 197.686 556.692 198.64 559.607 198.64C561.78 198.64 563.635 197.792 564.695 196.626L571.055 200.283C568.458 203.887 564.536 205.742 559.501 205.742C550.438 205.742 544.82 199.647 544.82 191.75C544.82 183.853 550.544 177.758 558.918 177.758C566.656 177.758 572.38 183.747 572.38 191.75C572.38 192.863 572.274 193.923 572.062 194.93H553.247ZM553.088 188.994H564.483C563.635 185.92 561.25 184.807 558.865 184.807C555.844 184.807 553.83 186.291 553.088 188.994ZM584.84 183.217C585.9 179.666 589.451 177.97 592.79 177.97V186.98C589.504 186.45 584.84 187.775 584.84 193.022V205H576.89V178.5H584.84V183.217ZM600.481 176.168C597.884 176.168 595.711 173.995 595.711 171.398C595.711 168.801 597.884 166.628 600.481 166.628C603.078 166.628 605.251 168.801 605.251 171.398C605.251 173.995 603.078 176.168 600.481 176.168ZM596.506 205V178.5H604.456V205H596.506ZM617.375 194.93C618.382 197.686 620.82 198.64 623.735 198.64C625.908 198.64 627.763 197.792 628.823 196.626L635.183 200.283C632.586 203.887 628.664 205.742 623.629 205.742C614.566 205.742 608.948 199.647 608.948 191.75C608.948 183.853 614.672 177.758 623.046 177.758C630.784 177.758 636.508 183.747 636.508 191.75C636.508 192.863 636.402 193.923 636.19 194.93H617.375ZM617.216 188.994H628.611C627.763 185.92 625.378 184.807 622.993 184.807C619.972 184.807 617.958 186.291 617.216 188.994ZM656.547 177.758C661.9 177.758 666.458 181.574 666.458 188.729V205H658.508V189.895C658.508 186.609 656.441 185.072 653.897 185.072C650.982 185.072 648.968 186.768 648.968 190.531V205H641.018V178.5H648.968V180.991C650.399 179.03 653.049 177.758 656.547 177.758ZM684.637 205.742C676.581 205.742 670.592 199.647 670.592 191.75C670.592 183.853 676.581 177.758 684.637 177.758C689.778 177.758 694.336 180.461 696.615 184.542L689.672 188.57C688.771 186.715 686.863 185.602 684.531 185.602C681.086 185.602 678.542 188.093 678.542 191.75C678.542 195.407 681.086 197.898 684.531 197.898C686.863 197.898 688.824 196.785 689.672 194.93L696.615 198.905C694.336 203.039 689.831 205.742 684.637 205.742ZM706.399 194.93C707.406 197.686 709.844 198.64 712.759 198.64C714.932 198.64 716.787 197.792 717.847 196.626L724.207 200.283C721.61 203.887 717.688 205.742 712.653 205.742C703.59 205.742 697.972 199.647 697.972 191.75C697.972 183.853 703.696 177.758 712.07 177.758C719.808 177.758 725.532 183.747 725.532 191.75C725.532 192.863 725.426 193.923 725.214 194.93H706.399ZM706.24 188.994H717.635C716.787 185.92 714.402 184.807 712.017 184.807C708.996 184.807 706.982 186.291 706.24 188.994ZM772.971 177.758C779.066 177.758 783.041 182.104 783.041 188.729V205H775.091V189.418C775.091 186.768 773.819 185.072 771.275 185.072C768.625 185.072 767.141 186.927 767.141 190.054V205H759.191V189.418C759.191 186.768 757.919 185.072 755.375 185.072C752.725 185.072 751.241 186.927 751.241 190.054V205H743.291V178.5H751.241V180.938C752.46 179.136 754.792 177.758 758.343 177.758C761.47 177.758 763.802 179.03 765.286 181.256C766.77 179.136 769.208 177.758 772.971 177.758ZM801.196 205.742C793.405 205.742 787.151 199.647 787.151 191.75C787.151 183.853 793.405 177.758 801.196 177.758C808.987 177.758 815.241 183.853 815.241 191.75C815.241 199.647 808.987 205.742 801.196 205.742ZM801.196 198.004C804.641 198.004 807.291 195.513 807.291 191.75C807.291 187.987 804.641 185.496 801.196 185.496C797.751 185.496 795.101 187.987 795.101 191.75C795.101 195.513 797.751 198.004 801.196 198.004ZM827.687 183.217C828.747 179.666 832.298 177.97 835.637 177.97V186.98C832.351 186.45 827.687 187.775 827.687 193.022V205H819.737V178.5H827.687V183.217ZM845.679 194.93C846.686 197.686 849.124 198.64 852.039 198.64C854.212 198.64 856.067 197.792 857.127 196.626L863.487 200.283C860.89 203.887 856.968 205.742 851.933 205.742C842.87 205.742 837.252 199.647 837.252 191.75C837.252 183.853 842.976 177.758 851.35 177.758C859.088 177.758 864.812 183.747 864.812 191.75C864.812 192.863 864.706 193.923 864.494 194.93H845.679ZM845.52 188.994H856.915C856.067 185.92 853.682 184.807 851.297 184.807C848.276 184.807 846.262 186.291 845.52 188.994ZM871.704 205.742C868.948 205.742 866.669 203.463 866.669 200.707C866.669 197.951 868.948 195.672 871.704 195.672C874.46 195.672 876.739 197.951 876.739 200.707C876.739 203.463 874.46 205.742 871.704 205.742Z" fill="#00D5C9"/>
</svg>
