<?xml version="1.0" encoding="UTF-8"?>
<svg xmlns="http://www.w3.org/2000/svg" id="Layer_1" data-name="Layer 1" viewBox="0 0 24 24">
  <path d="M23.149,.854c-.719-.719-1.729-1.007-2.708-.769L4.219,4.309C2.139,4.596,.532,6.108,.125,8.16c-.31,1.56,.224,3.209,1.439,4.424l1.437,1.354v4.562c0,.686,.278,1.308,.727,1.76,.002,.002,.003,.005,.005,.008s.005,.003,.008,.005c.452,.449,1.074,.727,1.76,.727h4.574l1.381,1.476c.982,.982,2.301,1.521,3.603,1.521,.466,0,.93-.069,1.375-.211,1.784-.569,3.044-2.046,3.279-3.799L23.91,3.6c.244-.999-.04-2.024-.76-2.745ZM2.26,11.866c-.967-.968-1.399-2.28-1.155-3.512,.323-1.627,1.599-2.826,3.309-3.066L20.686,1.056c.144-.035,.29-.052,.434-.052,.321,0,.633,.093,.915,.255L4.15,19.143c-.094-.196-.15-.412-.15-.643v-4.778c0-.138-.057-.27-.157-.364l-1.583-1.492ZM22.939,3.357l-4.208,16.438c-.193,1.423-1.19,2.587-2.603,3.037-1.339,.426-2.896,.008-3.956-1.052l-1.518-1.622c-.095-.101-.227-.158-.365-.158H5.5c-.231,0-.447-.057-.643-.15L22.746,1.961c.238,.416,.312,.912,.193,1.396Z"/>
</svg>
