<svg width="1440" height="500" viewBox="0 0 1440 500" fill="none" xmlns="http://www.w3.org/2000/svg">
<g clip-path="url(#clip0_327_12)">
<rect width="1440" height="500" fill="#1300A6"/>
<path opacity="0.8" d="M468.054 446.347C489.997 466.081 513.82 482.683 518.836 503.67C524.164 524.971 510.372 550.343 494.385 571.331C478.399 592.318 460.218 608.606 438.902 616.437C417.587 624.268 393.136 623.329 368.686 616.751C344.236 610.173 319.786 597.956 302.232 577.282C284.991 556.608 274.333 527.164 276.214 497.406C278.095 467.334 292.514 436.95 316.024 417.529C339.534 397.795 372.134 389.337 398.779 396.542C425.11 403.746 445.798 426.613 468.054 446.347Z" fill="url(#paint0_linear_327_12)"/>
<path opacity="0.8" d="M920.656 316.18C950.403 327.705 975.353 342.867 999.967 365.623C1024.41 388.05 1048.2 417.41 1045.36 444.817C1042.7 471.729 1013.75 496.522 987.442 521.642C961.137 546.762 937.312 571.88 906.556 581.487C876.296 591.258 838.444 585.024 817.136 563.915C795.662 542.476 790.236 505.998 785.633 473.646C781.196 440.799 777.417 412.573 783.558 382.687C789.698 352.8 805.924 321.582 831.392 309.669C856.364 297.592 890.578 304.82 920.656 316.18Z" fill="url(#paint1_linear_327_12)"/>
<path opacity="0.8" d="M147.392 228.635C168.806 247.588 178.884 279.176 177.939 307.605C176.995 336.034 164.712 361.304 150.856 386.258C136.999 410.897 121.568 434.904 97.9484 449.118C74.0141 463.333 42.2066 467.439 15.438 457.647C-11.3306 447.855 -32.7455 423.848 -40.9335 397.946C-49.1216 372.044 -43.7679 343.931 -35.2649 320.24C-26.7619 296.233 -15.1097 276.649 1.2664 256.748C17.9574 236.848 39.0574 216.632 66.1409 209.683C93.2245 202.733 125.977 209.367 147.392 228.635Z" fill="url(#paint2_linear_327_12)"/>
<path opacity="0.8" d="M552.783 -156.804C584.627 -135.647 610.017 -101.969 614.32 -65.7C618.624 -29.4313 601.841 8.56443 582.476 47.8555C563.111 87.1466 541.164 127.733 507.598 142.413C474.463 157.093 429.708 145.436 393.991 125.142C358.273 104.849 332.023 75.9206 310.506 42.2425C288.56 8.56443 271.777 -29.8631 276.941 -64.8365C282.105 -99.8099 309.646 -131.761 341.49 -152.918C373.335 -173.643 409.483 -184.005 446.491 -184.869C483.5 -186.164 521.369 -177.96 552.783 -156.804Z" fill="url(#paint3_linear_327_12)"/>
<path opacity="0.8" d="M1224.94 -97.5955C1259.04 -71.5947 1295.78 -45.1532 1310.84 -8.13515C1325.89 28.8829 1319.69 76.4776 1295.78 111.292C1271.88 146.107 1230.7 167.701 1191.3 172.108C1151.89 176.515 1114.7 163.734 1073.52 152.717C1032.35 141.7 987.631 132.005 965.936 104.241C944.242 76.9183 946.013 31.0864 956.639 -9.89792C967.265 -50.8822 987.188 -87.9003 1016.85 -114.782C1046.52 -142.105 1086.36 -159.733 1122.23 -155.326C1158.53 -150.919 1190.41 -124.037 1224.94 -97.5955Z" fill="url(#paint4_linear_327_12)"/>
<path opacity="0.8" d="M1550.94 292.404C1585.04 318.405 1621.78 344.847 1636.84 381.865C1651.89 418.883 1645.69 466.478 1621.78 501.292C1597.88 536.107 1556.7 557.701 1517.3 562.108C1477.89 566.515 1440.7 553.734 1399.52 542.717C1358.35 531.7 1313.63 522.005 1291.94 494.241C1270.24 466.918 1272.01 421.086 1282.64 380.102C1293.26 339.118 1313.19 302.1 1342.85 275.218C1372.52 247.895 1412.36 230.267 1448.23 234.674C1484.53 239.081 1516.41 265.963 1550.94 292.404Z" fill="url(#paint5_linear_327_12)"/>
</g>
<defs>
<linearGradient id="paint0_linear_327_12" x1="276" y1="622" x2="503.477" y2="378.56" gradientUnits="userSpaceOnUse">
<stop stop-color="#1300A6"/>
<stop offset="1" stop-color="#8E80FF"/>
</linearGradient>
<linearGradient id="paint1_linear_327_12" x1="839.384" y1="616.482" x2="967.622" y2="251.739" gradientUnits="userSpaceOnUse">
<stop stop-color="#1300A6"/>
<stop offset="1" stop-color="#8E80FF"/>
</linearGradient>
<linearGradient id="paint2_linear_327_12" x1="-45" y1="463" x2="208.581" y2="242.107" gradientUnits="userSpaceOnUse">
<stop stop-color="#1300A6"/>
<stop offset="1" stop-color="#8E80FF"/>
</linearGradient>
<linearGradient id="paint3_linear_327_12" x1="276" y1="149" x2="609.963" y2="-189.963" gradientUnits="userSpaceOnUse">
<stop stop-color="#1300A6"/>
<stop offset="1" stop-color="#8E80FF"/>
</linearGradient>
<linearGradient id="paint4_linear_327_12" x1="949" y1="173" x2="1275.74" y2="-194.463" gradientUnits="userSpaceOnUse">
<stop stop-color="#1300A6"/>
<stop offset="1" stop-color="#8E80FF"/>
</linearGradient>
<linearGradient id="paint5_linear_327_12" x1="1275" y1="563" x2="1601.74" y2="195.537" gradientUnits="userSpaceOnUse">
<stop stop-color="#1300A6"/>
<stop offset="1" stop-color="#8E80FF"/>
</linearGradient>
<clipPath id="clip0_327_12">
<rect width="1440" height="500" fill="white"/>
</clipPath>
</defs>
</svg>
