<?xml version="1.0" encoding="UTF-8"?>
<svg xmlns="http://www.w3.org/2000/svg" id="Layer_1" data-name="Layer 1" viewBox="0 0 24 24">
  <path d="m12,19.001l12-7.2v3.499l-12,7.2L0,15.3v-3.499l12,7.2Zm12-10.001v1.099l-12,7.2L0,10.099v-1.099L12,1.8l12,7.2Zm-12-3.701l-2.529,1.517,2.571,1.543,2.529-1.517-2.571-1.543Zm-7.084,4.25l2.571,1.543,2.611-1.567-2.571-1.543-2.612,1.567Zm7.084,4.25l2.611-1.567-2.569-1.542-2.611,1.567,2.569,1.541Zm7.084-4.25l-2.57-1.542-2.529,1.518,2.57,1.542,2.529-1.517Z"/>
</svg>
