<svg width="40" height="40" viewBox="0 0 40 40" fill="none" xmlns="http://www.w3.org/2000/svg">
<mask id="mask0_1142_3832" style="mask-type:alpha" maskUnits="userSpaceOnUse" x="0" y="0" width="40" height="40">
<circle cx="20" cy="20" r="19" fill="#F4BAB8" stroke="#2312AC" stroke-width="2"/>
</mask>
<g mask="url(#mask0_1142_3832)">
<path d="M2.16016 11.44C4.05349 11.3333 8.70416 11.616 12.1602 13.6C16.4802 16.08 20.0002 18.4 25.1202 18C30.2402 17.6 38.1602 18.56 39.9202 19.84" stroke="#2312AC" stroke-width="2"/>
<path d="M-4.64062 14.7439C-2.31407 14.6121 3.40073 14.9613 7.64751 17.412C12.956 20.4754 17.2814 23.3412 23.5729 22.8471C29.8645 22.353 39.5967 23.5389 41.7594 25.12" stroke="#2312AC" stroke-width="2"/>
<path d="M-4.64062 19.8638C-2.31407 19.732 3.40073 20.0812 7.64751 22.5319C12.956 25.5953 17.2814 28.4611 23.5729 27.967C29.8645 27.4729 39.5967 28.6587 41.7594 30.2398" stroke="#2312AC" stroke-width="2"/>
<path d="M-6.40039 25.144C-4.07384 25.0123 1.64097 25.3614 5.88775 27.8122C11.1962 30.8756 15.5216 33.7414 21.8132 33.2473C28.1047 32.7532 37.8369 33.939 39.9996 35.5201" stroke="#2312AC" stroke-width="2"/>
<path d="M-6.40039 30.2639C-4.07384 30.1321 1.64097 30.4813 5.88775 32.932C11.1962 35.9954 15.5216 38.8612 21.8132 38.3671C28.1047 37.873 37.8369 39.0589 39.9996 40.64" stroke="#2312AC" stroke-width="2"/>
<path d="M2.16016 6.25935C4.05349 6.15268 8.70416 6.43535 12.1602 8.41935C16.4802 10.8993 20.0002 13.2194 25.1202 12.8194C30.2402 12.4194 38.1602 13.3794 39.9202 14.6594" stroke="#2312AC" stroke-width="2"/>
<path d="M5.91992 2.89948C7.81326 2.79282 12.4639 3.07548 15.9199 5.05949C20.2399 7.53949 24.4799 9.60013 29.5999 9.20013C34.7199 8.80013 41.9199 10.0195 43.6799 11.2995" stroke="#2312AC" stroke-width="2"/>
<path d="M6.87891 -1.26043C8.77224 -1.36709 13.4229 -1.08443 16.8789 0.899573C21.1989 3.37957 24.7189 5.69959 29.8389 5.29959C34.9589 4.89959 42.8789 5.85959 44.6389 7.13959" stroke="#2312AC" stroke-width="2"/>
</g>
</svg>
